<?xml version="1.0" encoding="UTF-8" standalone="no"?>
<svg
   xmlns:dc="http://purl.org/dc/elements/1.1/"
   xmlns:cc="http://creativecommons.org/ns#"
   xmlns:rdf="http://www.w3.org/1999/02/22-rdf-syntax-ns#"
   xmlns:svg="http://www.w3.org/2000/svg"
   xmlns="http://www.w3.org/2000/svg"
   height="100"
   width="100"
   id="svg9324"
   version="1.1"
   viewBox="0 0 100 100">
  <metadata
     id="metadata9330">
    <rdf:RDF>
      <cc:Work
         rdf:about="">
        <dc:format>image/svg+xml</dc:format>
        <dc:type
           rdf:resource="http://purl.org/dc/dcmitype/StillImage" />
        <dc:title></dc:title>
      </cc:Work>
    </rdf:RDF>
  </metadata>
  <defs
     id="defs9328" />
  <text
     id="text10518"
     y="87.8125"
     x="2.375"
     style="font-style:normal;font-weight:normal;font-size:40px;line-height:1.25;font-family:sans-serif;letter-spacing:0px;word-spacing:0px;fill:#000000;fill-opacity:1;stroke:none"
     xml:space="preserve"><tspan
       y="125.0125"
       x="2.375"
       id="tspan10516" /></text>
  <text
     id="text10522"
     y="75.074486"
     x="-6.0987959"
     style="font-style:normal;font-weight:normal;font-size:10.66666698px;line-height:1.25;font-family:sans-serif;letter-spacing:0px;word-spacing:0px;fill:#000000;fill-opacity:1;stroke:none"
     xml:space="preserve"><tspan
       y="84.994484"
       x="-6.0987959"
       id="tspan10520" /></text>
  <text
     id="text10526"
     y="70.566681"
     x="-3.4471457"
     style="font-style:normal;font-weight:normal;font-size:8px;line-height:1.25;font-family:sans-serif;letter-spacing:0px;word-spacing:0px;fill:#000000;fill-opacity:1;stroke:none"
     xml:space="preserve"><tspan
       y="78.006683"
       x="-3.4471457"
       id="tspan10524" /></text>
  <g
     transform="matrix(1.7308709,0,0,1.7308709,-36.699806,-62.286307)"
     id="g10543">
    <path
       id="path10545"
       d="m 44.734833,88.073302 c 0.589321,-0.54406 1.194758,-1.313406 1.345414,-1.709661 0.159081,-0.418417 0.27392,-2.945131 0.27392,-6.026901 v -7.306438 l 1.771411,0.148511 c 1.619909,0.135807 3.222539,-0.134071 5.119974,-0.862183 0.352636,-0.13532 0.400281,2.529623 0.400281,7.586472 0,3.385114 0.112381,6.035658 0.27392,6.460539 0.150656,0.396255 0.756093,1.165601 1.345414,1.709661 L 56.336661,89.0625 H 50 43.663339 Z"
       style="fill:#785447;stroke-width:0.26041666" />
    <path
       id="path10555"
       d="M 47.594226,78.710833 47.046902,78.449834 C 46.236987,78.063605 45.119589,76.969061 44.60576,76.058607 l -0.452343,-0.801508 -1.047449,-0.06151 c -0.576097,-0.03383 -1.286286,-0.181963 -1.578198,-0.32918 -0.740598,-0.373499 -0.872374,-0.345933 -1.54057,0.322263 -0.775325,0.775325 -1.626899,1.16853 -2.707181,1.250011 -1.969522,0.148552 -3.57243,-0.959469 -4.347745,-3.005405 -0.234341,-0.618392 -0.251865,-0.629151 -1.169518,-0.718119 -2.213748,-0.21462 -3.779696,-1.768059 -3.941219,-3.909672 -0.140744,-1.866094 1.018891,-3.640861 2.79572,-4.278715 l 0.837566,-0.300674 0.0973,-0.934156 c 0.109922,-1.055301 0.314387,-1.650121 0.763461,-2.221026 0.496821,-0.631604 0.398115,-0.774047 -0.587876,-0.848359 -2.786084,-0.209984 -4.587889,-2.920876 -3.706035,-5.575888 0.357618,-1.076687 1.473083,-2.191799 2.595581,-2.594759 l 0.837566,-0.300674 0.09377,-0.934156 c 0.126814,-1.263346 0.455216,-1.96688 1.302498,-2.790345 1.139898,-1.107854 2.58483,-1.413078 4.473288,-0.944927 0.372293,0.09229 0.430109,0.04455 0.602591,-0.497597 0.662745,-2.083142 2.530327,-3.484496 4.643782,-3.484496 0.83385,0 0.893466,-0.02913 1.769212,-0.864449 1.31708,-1.256281 2.056638,-1.552322 3.877954,-1.552322 1.189023,0 1.625286,0.06648 2.210494,0.336843 0.97421,0.450082 2.092835,1.505439 2.658982,2.508599 l 0.462111,0.818815 h 0.823156 c 1.572094,0 2.811343,0.690294 3.685869,2.053125 0.464393,0.723693 0.53736,0.774475 0.983177,0.684248 2.1285,-0.430781 3.391195,-0.178158 4.498265,0.899951 0.970985,0.945584 1.284557,1.678069 1.279979,2.989947 -0.0021,0.600352 -0.06164,1.311786 -0.13231,1.580962 -0.122994,0.468445 -0.10276,0.497602 0.472276,0.68056 1.452613,0.462175 2.616202,1.543424 3.222474,2.994438 0.189127,0.452643 0.423127,0.658194 1.129956,0.992576 2.761521,1.30641 3.704859,4.563678 2.064795,7.129568 -0.501113,0.783997 -1.495229,1.569996 -2.348706,1.857008 -0.90523,0.304416 -0.921862,0.383956 -0.273756,1.309157 2.200316,3.141057 0.279482,7.361231 -3.488155,7.663661 -1.260707,0.101197 -2.427462,-0.242989 -3.432153,-1.012462 -0.419947,-0.32163 -0.851944,-0.650448 -0.959995,-0.730707 -0.136015,-0.101032 -0.378664,0.01405 -0.788702,0.374071 -1.093106,0.95976 -2.12089,1.317659 -3.881129,1.351502 l -1.559358,0.02998 -0.441867,0.754545 c -0.243027,0.414999 -0.751768,1.072725 -1.130534,1.461612 l -0.688667,0.707067 c -1.880716,1.50494 -4.210091,0.946368 -4.989895,0.592822 z"
       style="fill:#89c149;stroke-width:0.15593576" />
  </g>
</svg>
